<mxfile host="65bd71144e">
    <diagram id="CPTAvM7ILh0wS4u3pDCL" name="Page-1">
        <mxGraphModel dx="1556" dy="801" grid="0" gridSize="10" guides="0" tooltips="1" connect="1" arrows="1" fold="1" page="0" pageScale="1" pageWidth="827" pageHeight="1169" background="#1A1A1A" math="0" shadow="0">
            <root>
                <mxCell id="0"/>
                <mxCell id="1" parent="0"/>
                <mxCell id="56" style="edgeStyle=none;html=1;entryX=0;entryY=0.5;entryDx=0;entryDy=0;entryPerimeter=0;strokeColor=#66B2FF;strokeWidth=2;fontSize=13;fontColor=#FFFFFF;" edge="1" parent="1" source="2" target="4">
                    <mxGeometry relative="1" as="geometry"/>
                </mxCell>
                <mxCell id="62" style="edgeStyle=none;html=1;entryX=0.5;entryY=0;entryDx=0;entryDy=0;entryPerimeter=0;strokeColor=#66B2FF;strokeWidth=2;fontSize=13;fontColor=#FFFFFF;" edge="1" parent="1" source="2" target="7">
                    <mxGeometry relative="1" as="geometry"/>
                </mxCell>
                <mxCell id="2" value="&lt;b&gt;&lt;font color=&quot;#ffffff&quot; style=&quot;font-size: 14px;&quot;&gt;&amp;nbsp; &amp;nbsp;&lt;br&gt;User Browser&lt;/font&gt;&lt;/b&gt;" style="fontColor=#0066CC;verticalAlign=top;verticalLabelPosition=bottom;labelPosition=center;align=center;html=1;outlineConnect=0;fillColor=#CCCCCC;strokeColor=#6881B3;gradientColor=none;gradientDirection=north;strokeWidth=2;shape=mxgraph.networks.pc;" vertex="1" parent="1">
                    <mxGeometry x="-2" y="415" width="170" height="110" as="geometry"/>
                </mxCell>
                <mxCell id="3" value="&lt;b&gt;&lt;font style=&quot;font-size: 14px;&quot; color=&quot;#1a1a1a&quot;&gt;User Browser&lt;/font&gt;&lt;/b&gt;" style="text;html=1;align=center;verticalAlign=middle;resizable=0;points=[];autosize=1;strokeColor=none;fillColor=none;" vertex="1" parent="1">
                    <mxGeometry x="375" y="80" width="110" height="30" as="geometry"/>
                </mxCell>
                <mxCell id="57" style="edgeStyle=none;html=1;entryX=1;entryY=0.5;entryDx=0;entryDy=0;entryPerimeter=0;strokeColor=#66B2FF;strokeWidth=2;fontSize=13;fontColor=#FFFFFF;startArrow=none;" edge="1" parent="1" source="27" target="2">
                    <mxGeometry relative="1" as="geometry"/>
                </mxCell>
                <mxCell id="4" value="" style="fontColor=#0066CC;verticalAlign=top;verticalLabelPosition=bottom;labelPosition=center;align=center;html=1;outlineConnect=0;fillColor=#CCCCCC;strokeColor=#6881B3;gradientColor=none;gradientDirection=north;strokeWidth=2;shape=mxgraph.networks.server;" vertex="1" parent="1">
                    <mxGeometry x="375" y="410" width="110" height="120" as="geometry"/>
                </mxCell>
                <mxCell id="49" style="edgeStyle=none;html=1;entryX=0;entryY=0.25;entryDx=0;entryDy=0;strokeColor=#66B2FF;strokeWidth=2;fontSize=14;fontColor=#333333;exitX=0.88;exitY=0.5;exitDx=0;exitDy=0;exitPerimeter=0;" edge="1" parent="1" source="7" target="36">
                    <mxGeometry relative="1" as="geometry"/>
                </mxCell>
                <mxCell id="63" style="edgeStyle=none;html=1;exitX=0.5;exitY=0;exitDx=0;exitDy=0;exitPerimeter=0;entryX=0.5;entryY=1;entryDx=0;entryDy=0;entryPerimeter=0;strokeColor=#66B2FF;strokeWidth=2;fontSize=13;fontColor=#FFFFFF;" edge="1" parent="1" source="7" target="2">
                    <mxGeometry relative="1" as="geometry"/>
                </mxCell>
                <mxCell id="7" value="&lt;b&gt;&lt;font color=&quot;#ffffff&quot; style=&quot;font-size: 14px;&quot;&gt;Ngnix Server&lt;/font&gt;&lt;/b&gt;" style="fontColor=#0066CC;verticalAlign=top;verticalLabelPosition=bottom;labelPosition=center;align=center;html=1;outlineConnect=0;fillColor=#CCCCCC;strokeColor=#6881B3;gradientColor=none;gradientDirection=north;strokeWidth=2;shape=mxgraph.networks.web_server;" vertex="1" parent="1">
                    <mxGeometry x="18" y="685" width="130" height="130" as="geometry"/>
                </mxCell>
                <mxCell id="8" value="&lt;b&gt;Web Server&lt;br&gt;Ngnix&lt;br&gt;&lt;/b&gt;" style="text;html=1;align=center;verticalAlign=middle;resizable=0;points=[];autosize=1;strokeColor=none;fillColor=none;fontColor=#1A1A1A;" vertex="1" parent="1">
                    <mxGeometry x="310" y="635" width="90" height="40" as="geometry"/>
                </mxCell>
                <mxCell id="9" value="&lt;b style=&quot;font-size: 13px;&quot;&gt;&lt;font color=&quot;#ffffff&quot;&gt;Storage Server&lt;br&gt;Mongodb&lt;/font&gt;&lt;/b&gt;" style="fontColor=#0066CC;verticalAlign=top;verticalLabelPosition=bottom;labelPosition=center;align=center;html=1;outlineConnect=0;fillColor=#CCCCCC;strokeColor=#6881B3;gradientColor=none;gradientDirection=north;strokeWidth=2;shape=mxgraph.networks.server_storage;" vertex="1" parent="1">
                    <mxGeometry x="800" y="635" width="110" height="130" as="geometry"/>
                </mxCell>
                <mxCell id="10" value="&lt;b style=&quot;font-size: 14px;&quot;&gt;Storage Server&lt;br&gt;Mongodb&lt;/b&gt;" style="text;html=1;align=center;verticalAlign=middle;resizable=0;points=[];autosize=1;strokeColor=none;fillColor=none;fontColor=#1A1A1A;" vertex="1" parent="1">
                    <mxGeometry x="515" y="640" width="120" height="50" as="geometry"/>
                </mxCell>
                <mxCell id="22" value="&lt;b&gt;&lt;font color=&quot;#333333&quot; style=&quot;font-size: 20px;&quot;&gt;Flask SocketIO web application&lt;br&gt;&lt;br&gt;&lt;br&gt;&lt;br&gt;&lt;br&gt;&lt;br&gt;&lt;br&gt;&lt;br&gt;&lt;br&gt;&lt;br&gt;&lt;br&gt;&lt;br&gt;&lt;br&gt;&lt;/font&gt;&lt;/b&gt;" style="whiteSpace=wrap;html=1;fontColor=#FFFFFF;fillColor=#FFFFFF;strokeWidth=2;fillOpacity=54;" vertex="1" parent="1">
                    <mxGeometry x="220" y="620" width="520" height="350" as="geometry"/>
                </mxCell>
                <mxCell id="35" style="edgeStyle=none;html=1;entryX=0;entryY=0.5;entryDx=0;entryDy=0;entryPerimeter=0;strokeColor=#66B2FF;strokeWidth=2;fontSize=20;fontColor=#333333;" edge="1" parent="1" source="33" target="9">
                    <mxGeometry relative="1" as="geometry"/>
                </mxCell>
                <mxCell id="59" style="edgeStyle=none;html=1;strokeColor=#66B2FF;strokeWidth=2;fontSize=13;fontColor=#FFFFFF;" edge="1" parent="1" source="33">
                    <mxGeometry relative="1" as="geometry">
                        <mxPoint x="600" y="710" as="targetPoint"/>
                    </mxGeometry>
                </mxCell>
                <mxCell id="33" value="&lt;b&gt;db&lt;/b&gt;" style="shape=delay;whiteSpace=wrap;html=1;strokeWidth=2;fontSize=20;fontColor=#333333;fillColor=#FFFFFF;" vertex="1" parent="1">
                    <mxGeometry x="600" y="680" width="115" height="40" as="geometry"/>
                </mxCell>
                <mxCell id="51" style="edgeStyle=none;html=1;exitX=0;exitY=0.75;exitDx=0;exitDy=0;entryX=0.5;entryY=0.94;entryDx=0;entryDy=0;entryPerimeter=0;strokeColor=#66B2FF;strokeWidth=2;fontSize=14;fontColor=#333333;" edge="1" parent="1" source="36" target="7">
                    <mxGeometry relative="1" as="geometry">
                        <Array as="points">
                            <mxPoint x="83" y="890"/>
                        </Array>
                    </mxGeometry>
                </mxCell>
                <mxCell id="54" style="edgeStyle=none;html=1;exitX=1;exitY=0.25;exitDx=0;exitDy=0;entryX=0;entryY=0.75;entryDx=0;entryDy=0;strokeColor=#66B2FF;strokeWidth=2;fontSize=13;fontColor=#FFFFFF;" edge="1" parent="1" source="36" target="33">
                    <mxGeometry relative="1" as="geometry"/>
                </mxCell>
                <mxCell id="36" value="Views = phi    __init__.py" style="swimlane;startSize=20;horizontal=1;childLayout=flowLayout;flowOrientation=north;resizable=0;interRankCellSpacing=50;containerType=tree;fontSize=14;strokeWidth=3;fontColor=#333333;fillColor=#FFFFFF;fontStyle=1" vertex="1" parent="1">
                    <mxGeometry x="230" y="680" width="270" height="280" as="geometry"/>
                </mxCell>
                <mxCell id="37" value="&lt;b&gt;auth.py&lt;/b&gt;" style="whiteSpace=wrap;html=1;strokeWidth=2;fontSize=20;fontColor=#333333;fillColor=#FFFFFF;" vertex="1" parent="36">
                    <mxGeometry x="85" y="40" width="100" height="40" as="geometry"/>
                </mxCell>
                <mxCell id="38" value="&lt;b&gt;news.py&lt;/b&gt;" style="whiteSpace=wrap;html=1;strokeWidth=2;fontSize=20;fontColor=#333333;fillColor=#FFFFFF;" vertex="1" parent="36">
                    <mxGeometry x="150" y="130" width="100" height="40" as="geometry"/>
                </mxCell>
                <mxCell id="39" value="" style="html=1;rounded=1;curved=0;sourcePerimeterSpacing=0;targetPerimeterSpacing=0;startSize=6;endSize=6;strokeColor=#66B2FF;strokeWidth=2;fontSize=20;fontColor=#333333;noEdgeStyle=1;orthogonal=1;" edge="1" parent="36" source="37" target="38">
                    <mxGeometry relative="1" as="geometry">
                        <Array as="points">
                            <mxPoint x="157.5" y="92"/>
                            <mxPoint x="200" y="118"/>
                        </Array>
                    </mxGeometry>
                </mxCell>
                <mxCell id="40" value="&lt;b&gt;profil.py&lt;/b&gt;" style="whiteSpace=wrap;html=1;strokeWidth=2;fontSize=20;fontColor=#333333;fillColor=#FFFFFF;" vertex="1" parent="36">
                    <mxGeometry x="20" y="130" width="100" height="40" as="geometry"/>
                </mxCell>
                <mxCell id="41" value="" style="html=1;rounded=1;curved=0;sourcePerimeterSpacing=0;targetPerimeterSpacing=0;startSize=6;endSize=6;strokeColor=#66B2FF;strokeWidth=2;fontSize=20;fontColor=#333333;noEdgeStyle=1;orthogonal=1;" edge="1" parent="36" source="37" target="40">
                    <mxGeometry relative="1" as="geometry">
                        <Array as="points">
                            <mxPoint x="112.5" y="92"/>
                            <mxPoint x="70" y="118"/>
                        </Array>
                    </mxGeometry>
                </mxCell>
                <mxCell id="42" value="&lt;b&gt;chat.py&lt;/b&gt;" style="whiteSpace=wrap;html=1;strokeWidth=2;fontSize=20;fontColor=#333333;fillColor=#FFFFFF;" vertex="1" parent="36">
                    <mxGeometry x="85" y="220" width="100" height="40" as="geometry"/>
                </mxCell>
                <mxCell id="43" value="" style="html=1;rounded=1;curved=0;sourcePerimeterSpacing=0;targetPerimeterSpacing=0;startSize=6;endSize=6;strokeColor=#66B2FF;strokeWidth=2;fontSize=20;fontColor=#333333;noEdgeStyle=1;orthogonal=1;" edge="1" parent="36" source="38" target="42">
                    <mxGeometry relative="1" as="geometry">
                        <Array as="points">
                            <mxPoint x="200" y="182"/>
                            <mxPoint x="157.5" y="208"/>
                        </Array>
                    </mxGeometry>
                </mxCell>
                <mxCell id="44" value="" style="html=1;rounded=1;curved=0;sourcePerimeterSpacing=0;targetPerimeterSpacing=0;startSize=6;endSize=6;strokeColor=#66B2FF;strokeWidth=2;fontSize=20;fontColor=#333333;noEdgeStyle=1;orthogonal=1;" edge="1" parent="36" source="40" target="42">
                    <mxGeometry relative="1" as="geometry">
                        <Array as="points">
                            <mxPoint x="70" y="182"/>
                            <mxPoint x="112.5" y="208"/>
                        </Array>
                    </mxGeometry>
                </mxCell>
                <mxCell id="52" style="edgeStyle=none;html=1;exitX=0.25;exitY=0;exitDx=0;exitDy=0;entryX=1;entryY=0.25;entryDx=0;entryDy=0;strokeColor=#66B2FF;strokeWidth=2;fontSize=13;fontColor=#FFFFFF;" edge="1" parent="1" source="45" target="36">
                    <mxGeometry relative="1" as="geometry"/>
                </mxCell>
                <mxCell id="45" value="Static Files" style="swimlane;startSize=20;horizontal=1;containerType=tree;strokeWidth=3;fontSize=14;fontColor=#333333;fillColor=#FFFFFF;" vertex="1" parent="1">
                    <mxGeometry x="530" y="810" width="190" height="150" as="geometry"/>
                </mxCell>
                <mxCell id="46" value="" style="edgeStyle=elbowEdgeStyle;elbow=vertical;sourcePerimeterSpacing=0;targetPerimeterSpacing=0;startArrow=none;endArrow=none;rounded=0;curved=0;strokeColor=#66B2FF;strokeWidth=2;fontSize=13;fontColor=#333333;" edge="1" parent="45" source="47" target="48">
                    <mxGeometry relative="1" as="geometry"/>
                </mxCell>
                <mxCell id="47" value="&lt;b&gt;&lt;font style=&quot;font-size: 14px;&quot;&gt;Templates&lt;/font&gt;&lt;/b&gt;" style="whiteSpace=wrap;html=1;treeFolding=1;treeMoving=1;newEdgeStyle={&quot;edgeStyle&quot;:&quot;elbowEdgeStyle&quot;,&quot;startArrow&quot;:&quot;none&quot;,&quot;endArrow&quot;:&quot;none&quot;};strokeWidth=2;fontSize=13;fontColor=#333333;fillColor=#FFFFFF;" vertex="1" parent="45">
                    <mxGeometry x="40" y="40" width="120" height="40" as="geometry"/>
                </mxCell>
                <mxCell id="48" value="&lt;b&gt;&lt;font style=&quot;font-size: 14px;&quot;&gt;Static&lt;/font&gt;&lt;/b&gt;" style="whiteSpace=wrap;html=1;treeFolding=1;treeMoving=1;newEdgeStyle={&quot;edgeStyle&quot;:&quot;elbowEdgeStyle&quot;,&quot;startArrow&quot;:&quot;none&quot;,&quot;endArrow&quot;:&quot;none&quot;};strokeWidth=2;fontSize=13;fontColor=#333333;fillColor=#FFFFFF;" vertex="1" parent="45">
                    <mxGeometry x="40" y="100" width="120" height="40" as="geometry"/>
                </mxCell>
                <mxCell id="58" value="" style="edgeStyle=none;html=1;entryX=1;entryY=0.5;entryDx=0;entryDy=0;entryPerimeter=0;strokeColor=#66B2FF;strokeWidth=2;fontSize=13;fontColor=#FFFFFF;endArrow=none;" edge="1" parent="1" source="4" target="27">
                    <mxGeometry relative="1" as="geometry">
                        <mxPoint x="375" y="470" as="sourcePoint"/>
                        <mxPoint x="168" y="470" as="targetPoint"/>
                    </mxGeometry>
                </mxCell>
                <mxCell id="27" value="&lt;font color=&quot;#ffffff&quot;&gt;&lt;b&gt;IP adresse&lt;br&gt;request and response&lt;br&gt;&lt;/b&gt;&lt;/font&gt;" style="text;html=1;align=center;verticalAlign=middle;resizable=0;points=[];autosize=1;strokeColor=none;fillColor=none;fontSize=14;fontColor=#1A1A1A;" vertex="1" parent="1">
                    <mxGeometry x="190" y="445" width="170" height="50" as="geometry"/>
                </mxCell>
                <mxCell id="64" value="Request and response" style="text;html=1;align=center;verticalAlign=middle;resizable=0;points=[];autosize=1;strokeColor=none;fillColor=none;fontSize=14;fontColor=#FFFFFF;" vertex="1" parent="1">
                    <mxGeometry x="-2" y="620" width="160" height="30" as="geometry"/>
                </mxCell>
                <mxCell id="66" value="&lt;b&gt;&lt;font style=&quot;font-size: 15px;&quot; color=&quot;#1a1a1a&quot;&gt;wsgi.py&lt;/font&gt;&lt;/b&gt;" style="text;html=1;align=center;verticalAlign=middle;resizable=0;points=[];autosize=1;strokeColor=none;fillColor=none;fontSize=14;fontColor=#FFFFFF;" vertex="1" parent="1">
                    <mxGeometry x="30" y="738" width="80" height="30" as="geometry"/>
                </mxCell>
            </root>
        </mxGraphModel>
    </diagram>
</mxfile>